HIERARCHY
ROOT Hips
{
	OFFSET -0.001795 -0.223333 0.028219
	CHANNELS 6 Xposition Yposition Zposition Zrotation Yrotation Xrotation
	JOINT LeftUpLeg
	{
		OFFSET 0.069520 -0.091406 -0.006815
		CHANNELS 3 Zrotation Yrotation Xrotation
		JOINT LeftLeg
		{
			OFFSET 0.034277 -0.375199 -0.004496
			CHANNELS 3 Zrotation Yrotation Xrotation
			JOINT LeftFoot
			{
				OFFSET -0.013596 -0.397961 -0.043693
				CHANNELS 3 Zrotation Yrotation Xrotation
				JOINT LeftToe
				{
					OFFSET 0.026358 -0.055791 0.119288
					CHANNELS 3 Zrotation Yrotation Xrotation
					End Site
					{
						OFFSET 0.000000 0.000000 0.000000
					}
				}
			}
		}
	}
	JOINT RightUpLeg
	{
		OFFSET -0.067670 -0.090522 -0.004320
		CHANNELS 3 Zrotation Yrotation Xrotation
		JOINT RightLeg
		{
			OFFSET -0.038290 -0.382569 -0.008850
			CHANNELS 3 Zrotation Yrotation Xrotation
			JOINT RightFoot
			{
				OFFSET 0.015774 -0.398415 -0.042312
				CHANNELS 3 Zrotation Yrotation Xrotation
				JOINT RightToe
				{
					OFFSET -0.025372 -0.048144 0.123348
					CHANNELS 3 Zrotation Yrotation Xrotation
					End Site
					{
						OFFSET 0.000000 0.000000 0.000000
					}
				}
			}
		}
	}
	JOINT Spine
	{
		OFFSET -0.002533 0.108963 -0.026696
		CHANNELS 3 Zrotation Yrotation Xrotation
		JOINT Spine1
		{
			OFFSET 0.005487 0.135180 0.001092
			CHANNELS 3 Zrotation Yrotation Xrotation
			JOINT Spine2
			{
				OFFSET 0.001457 0.052922 0.025425
				CHANNELS 3 Zrotation Yrotation Xrotation
				JOINT Neck
				{
					OFFSET -0.002778 0.213870 -0.042857
					CHANNELS 3 Zrotation Yrotation Xrotation
					JOINT Head
					{
						OFFSET 0.005152 0.064970 0.051349
						CHANNELS 3 Zrotation Yrotation Xrotation
						End Site
						{
							OFFSET 0.000000 0.000000 0.000000
						}
					}
				}
				JOINT LeftShoulder
				{
					OFFSET 0.078845 0.121749 -0.034090
					CHANNELS 3 Zrotation Yrotation Xrotation
					JOINT LeftArm
					{
						OFFSET 0.090977 0.030469 -0.008868
						CHANNELS 3 Zrotation Yrotation Xrotation
						JOINT LeftForeArm
						{
							OFFSET 0.259612 -0.012772 -0.027456
							CHANNELS 3 Zrotation Yrotation Xrotation
							JOINT LeftHand
							{
								OFFSET 0.249234 0.008986 -0.001171
								CHANNELS 3 Zrotation Yrotation Xrotation
								End Site
								{
									OFFSET 0.000000 0.000000 0.000000
								}
							}
						}
					}
				}
				JOINT RightShoulder
				{
					OFFSET -0.081759 0.118833 -0.038615
					CHANNELS 3 Zrotation Yrotation Xrotation
					JOINT RightArm
					{
						OFFSET -0.096012 0.032551 -0.009143
						CHANNELS 3 Zrotation Yrotation Xrotation
						JOINT RightForeArm
						{
							OFFSET -0.253742 -0.013329 -0.021401
							CHANNELS 3 Zrotation Yrotation Xrotation
							JOINT RightHand
							{
								OFFSET -0.255298 0.007772 -0.005559
								CHANNELS 3 Zrotation Yrotation Xrotation
								End Site
								{
									OFFSET 0.000000 0.000000 0.000000
								}
							}
						}
					}
				}
			}
		}
	}
}
MOTION
Frames: 10
Frame Time: 0.050000
0.000000 0.973697 0.000000 -0.165580 -4.166413 -5.994961 -1.891457 1.253121 10.872901 -0.981294 0.199535 -3.323655 1.336649 6.898145 14.206420 0.000000 0.000000 0.000000 0.985421 -1.041653 10.129349 -0.229584 -0.062765 -2.035677 1.777086 -3.840919 15.938169 0.000000 0.000000 0.000000 7.049527 -1.299994 13.821396 -11.832864 3.058007 -29.749194 2.444938 1.082256 28.125402 10.837233 -10.722469 -2.154058 0.000000 0.000000 0.000000 -34.308952 -8.996242 5.077955 -44.423596 1.611737 -8.635838 -4.464031 -20.437103 1.747131 0.000000 0.000000 0.000000 40.482124 -1.626974 -5.131084 42.923225 0.742655 -6.170160 5.026726 24.102143 2.016105 0.000000 0.000000 0.000000
0.001703 0.971205 0.002191 -0.249647 -3.627474 -5.318777 -1.414727 1.171595 10.619970 -1.860425 0.288204 -3.913553 1.203804 6.582741 13.477704 0.000000 0.000000 0.000000 1.379571 -1.007530 9.260331 -0.403121 -0.021760 -1.421806 0.694261 -5.300927 14.950085 0.000000 0.000000 0.000000 7.322034 -1.222022 12.507117 -13.510936 3.509469 -28.802768 3.390758 0.022665 27.465429 11.176402 -10.927759 -2.608928 0.000000 0.000000 0.000000 -34.388627 -8.562183 5.064070 -43.610790 1.649329 -8.508317 -4.704324 -21.714180 1.918703 0.000000 0.000000 0.000000 39.717531 -2.030306 -5.767311 44.202350 0.039147 -6.393247 4.416719 25.071097 1.969677 0.000000 0.000000 0.000000
0.003433 0.969969 0.004400 0.281462 -2.703375 -4.967935 -1.969460 1.145202 10.065958 -1.986748 0.287219 -3.422890 0.851761 5.973349 12.884900 0.000000 0.000000 0.000000 1.171891 -0.985663 9.120730 -0.798395 0.000807 -1.723062 -0.278306 -6.865575 14.900857 0.000000 0.000000 0.000000 7.297565 -1.160268 11.758163 -14.610355 3.700298 -29.458996 4.267894 -0.925211 28.707140 9.523199 -9.365103 -3.040966 0.000000 0.000000 0.000000 -34.681697 -8.895572 5.565115 -43.250508 0.138576 -8.141919 -4.054126 -20.999451 1.733621 0.000000 0.000000 0.000000 39.195387 -1.914102 -5.715506 43.938809 -0.223378 -6.529306 4.704946 24.820173 1.997805 0.000000 0.000000 0.000000
0.005178 0.970368 0.006922 0.360212 -1.953618 -5.115107 -2.446433 1.234776 10.560087 -1.920181 0.280552 -3.512833 1.288570 6.593174 12.189904 0.000000 0.000000 0.000000 0.857368 -1.040348 9.845110 -0.029419 -0.082915 -2.144103 -1.153847 -8.248374 14.726267 0.000000 0.000000 0.000000 7.474471 -1.164326 11.595314 -14.539925 3.679707 -29.739754 3.949027 -0.596349 29.723047 9.388694 -9.226145 -3.245974 0.000000 0.000000 0.000000 -34.801370 -9.565727 5.737085 -43.820066 0.001199 -8.196887 -3.163212 -21.985607 1.662960 0.000000 0.000000 0.000000 40.132964 -1.915729 -5.371978 43.461249 0.346553 -6.507112 4.752369 24.655459 2.037771 0.000000 0.000000 0.000000
0.006856 0.969758 0.009620 0.351507 -0.847211 -5.198741 -2.796792 1.274842 10.779583 -1.399364 0.233697 -3.496812 1.053435 6.222130 11.766759 0.000000 0.000000 0.000000 0.840347 -1.096505 10.208295 -0.185152 -0.068885 -2.141111 -1.372334 -8.483193 14.779354 0.000000 0.000000 0.000000 7.482251 -1.148505 11.356011 -14.028387 3.856113 -27.341042 3.491785 -0.388791 27.146416 8.848508 -8.981199 -0.697277 0.000000 0.000000 0.000000 -34.771971 -9.847494 5.355843 -43.850575 0.219485 -7.865039 -3.065214 -22.775749 1.676546 0.000000 0.000000 0.000000 40.499292 -1.855526 -5.093641 42.888376 0.117984 -6.340392 4.376418 23.900501 1.875548 0.000000 0.000000 0.000000
0.008149 0.968676 0.012754 0.336096 0.185456 -5.515983 -2.958993 1.304976 11.078958 -1.247625 0.212627 -3.213915 1.039047 6.202349 11.365065 0.000000 0.000000 0.000000 0.722438 -1.164485 10.773923 0.109238 -0.085948 -1.919878 -1.876068 -9.153340 14.460080 0.000000 0.000000 0.000000 7.281513 -1.114677 11.181639 -13.461940 3.824340 -26.737371 3.282809 0.119336 27.096763 9.147923 -9.194022 -0.831033 0.000000 0.000000 0.000000 -34.606278 -10.200632 5.032860 -43.971759 -0.102870 -7.606797 -2.785661 -23.479218 1.656041 0.000000 0.000000 0.000000 40.817981 -1.750620 -4.417633 42.640620 0.683811 -6.303741 3.595549 23.080090 1.685175 0.000000 0.000000 0.000000
0.008833 0.967482 0.016001 0.296927 1.173770 -5.503923 -2.950306 1.339764 11.560284 -1.170555 0.217539 -3.790426 0.804214 5.823414 11.034900 0.000000 0.000000 0.000000 0.813652 -1.236257 11.145684 0.030884 -0.088863 -2.185129 -2.211950 -9.644939 14.610958 0.000000 0.000000 0.000000 7.122227 -1.080258 10.910570 -12.717823 3.797326 -25.559279 2.685487 0.328485 25.691125 9.277265 -9.533422 0.615865 0.000000 0.000000 0.000000 -34.509426 -10.128283 4.517526 -44.094204 0.792698 -7.671679 -3.163887 -24.051291 1.753894 0.000000 0.000000 0.000000 41.269773 -1.904064 -4.263022 42.448476 0.346150 -6.358124 3.843569 22.920376 1.721814 0.000000 0.000000 0.000000
0.009107 0.966165 0.018944 0.240541 1.766141 -5.650900 -2.828245 1.350461 11.900360 -1.110649 0.211048 -3.759046 0.534433 5.273617 10.516211 0.000000 0.000000 0.000000 0.824866 -1.297857 11.561122 0.188470 -0.101608 -2.143824 -2.470604 -9.957359 14.256676 0.000000 0.000000 0.000000 7.150271 -1.091556 10.977290 -12.412143 3.795511 -25.071123 2.406126 0.284748 25.542965 9.252820 -9.772144 1.673481 0.000000 0.000000 0.000000 -34.631420 -10.487694 4.598016 -43.814327 0.695029 -7.519204 -3.772701 -24.250642 1.879554 0.000000 0.000000 0.000000 41.584709 -1.902786 -4.138214 42.028807 0.703016 -6.220725 3.952274 22.941549 1.745181 0.000000 0.000000 0.000000
0.009100 0.965453 0.021065 0.312458 1.859593 -5.640749 -2.686216 1.363923 12.181055 -1.313905 0.234880 -4.174155 0.277420 4.932734 10.755378 0.000000 0.000000 0.000000 0.785805 -1.330083 11.866099 0.099507 -0.109100 -2.548273 -2.507678 -10.034675 14.361170 0.000000 0.000000 0.000000 6.921749 -1.084633 11.110770 -12.356140 3.845843 -24.466366 2.561080 0.092938 24.809058 8.962278 -9.836358 3.252581 0.000000 0.000000 0.000000 -34.587459 -10.728310 4.803613 -43.577518 1.093463 -7.557293 -4.494885 -23.995451 1.995355 0.000000 0.000000 0.000000 41.764467 -1.742890 -4.180503 41.624809 0.669025 -6.073053 4.225295 23.334547 1.810283 0.000000 0.000000 0.000000
0.009114 0.964568 0.022429 0.350003 2.183308 -5.695735 -2.592370 1.348007 12.201775 -1.508272 0.243500 -3.956818 0.228437 4.777572 10.435426 0.000000 0.000000 0.000000 0.781834 -1.343508 11.923507 0.022177 -0.096004 -2.393833 -2.604135 -10.150348 14.276990 0.000000 0.000000 0.000000 6.841853 -1.088696 11.212759 -12.059861 3.876437 -23.474611 2.189711 -0.232935 24.027859 8.703848 -9.757136 4.213572 0.000000 0.000000 0.000000 -34.229672 -10.944772 4.963849 -43.756794 1.266379 -7.578080 -4.830103 -23.968081 2.054395 0.000000 0.000000 0.000000 41.896685 -1.461058 -4.092219 41.405868 0.809584 -5.894831 4.435545 23.536813 1.850281 0.000000 0.000000 0.000000
